<svg data-v-0dd9719b="" version="1.0" xmlns="http://www.w3.org/2000/svg" xmlns:xlink="http://www.w3.org/1999/xlink" width="100%" height="100%" viewBox="0 0 340.000000 250.000000" preserveAspectRatio="xMidYMid meet" color-interpolation-filters="sRGB" style="margin: auto;"> <rect data-v-0dd9719b="" x="0" y="0" width="100%" height="100%" fill="#fff" fill-opacity="1" class="background"></rect> <rect data-v-0dd9719b="" x="0" y="0" width="100%" height="100%" fill="url(#watermark)" fill-opacity="1" class="watermarklayer"></rect> <g data-v-0dd9719b="" fill="#333" class="icon-text-wrapper icon-svg-group iconsvg" transform="translate(50.159996032714844,94.99699974060059)"><g class="iconsvg-imagesvg" transform="translate(0,0)"><g><rect fill="#333" fill-opacity="0" stroke-width="2" x="0" y="0" width="60" height="60.006000600060005" class="image-rect"></rect> <svg x="0" y="0" width="60" height="60.006000600060005" filtersec="colorsb646015051" class="image-svg-svg primary" style="overflow: visible;"><svg xmlns="http://www.w3.org/2000/svg" viewBox="0.01964184083044529 -0.03000464104115963 99.9903564453125 100.00001525878906"><path d="M75.74 61.83H62.5a17.53 17.53 0 0 1-26.75-1.37 2.57 2.57 0 0 0 .3-1.17 2.53 2.53 0 1 0-2.53 2.53 2.73 2.73 0 0 0 .5 0A19.68 19.68 0 0 0 63.41 64h9.45a26.79 26.79 0 1 1 0-28h-9.1a19.69 19.69 0 0 0-30.19 2.5 2.53 2.53 0 1 0 2.48 2.5 2.47 2.47 0 0 0-.53-1.53 17.53 17.53 0 0 1 27.29-1.33H98.6a50 50 0 1 0 0 23.66zm-43.45-2.54a1.23 1.23 0 1 1 1.23 1.23 1.24 1.24 0 0 1-1.23-1.23zM34.75 41a1.23 1.23 0 1 1-1.23-1.23A1.23 1.23 0 0 1 34.75 41zM83.6 73.42a3.7 3.7 0 0 1-.95-.14 40 40 0 1 1 0-46.56 3.7 3.7 0 0 1 .95-.14 3.86 3.86 0 1 1-3.27 1.86 37.14 37.14 0 1 0 0 43.12 3.83 3.83 0 1 1 3.27 1.86z" fill="#0080df"></path><path d="M99.87 46.27H58.16a9 9 0 1 0 0 7.46h41.71c.09-1.23.14-2.47.14-3.73s-.01-2.5-.14-3.73zM50 53.73A3.73 3.73 0 1 1 53.73 50 3.73 3.73 0 0 1 50 53.73z" fill="#f6911e"></path><path d="M81.74 30.42a1.87 1.87 0 1 0 1.86-1.87 1.87 1.87 0 0 0-1.86 1.87zM83.6 67.71a1.87 1.87 0 1 0 1.87 1.87 1.87 1.87 0 0 0-1.87-1.87z" fill="#0080df"></path></svg></svg> <!----></g></g> <g transform="translate(67,11.282999038696289)"><g data-gra="path-name" fill-rule="" class="tp-name iconsvg-namesvg"><g transform="scale(1)"><g><path d="M4.98-37.56L18.84-37.56 30.9-16.26 33.78-37.56 43.62-37.56 39-3.6 27.48-3.6 15.96-24.36 13.08-3.6 2.7-3.6 7.32-35.28 4.98-37.56ZM51.6-28.92L77.52-28.92Q79.26-28.92 80.13-27.51 81-26.1 81-24.36L81-24.36 78.12-3.6 52.2-3.6Q50.46-3.6 49.59-4.74 48.72-5.88 48.72-7.62L48.72-7.62 51.6-28.92ZM69.48-23.16L62.52-23.16 60.24-9.36 67.14-9.36 69.48-23.16ZM100.14-14.52L107.04-28.92 118.02-28.92 104.16-3.6 92.64-3.6 86.34-26.64 84.6-28.92 96.72-28.92 100.14-14.52ZM154.44-28.92L152.16-13.98 133.74-13.98 133.14-9.36 149.28-9.36 152.16-11.64 150.42-3.6 125.1-3.6Q123.36-3.6 122.49-4.74 121.62-5.88 121.62-7.62L121.62-7.62 124.5-28.92 154.44-28.92ZM142.38-23.16L135.42-23.16 134.88-19.74 141.78-19.74 142.38-23.16ZM162.12-41.04L175.38-41.04 170.76-9.36 174.78-3.6 162.72-3.6Q160.98-3.6 160.11-4.74 159.24-5.88 159.24-7.62L159.24-7.62 163.86-39.3 162.12-41.04Z" transform="translate(-2.700000047683716, 41.040000915527344)"></path></g> <!----> <!----> <!----> <!----> <!----> <!----> <!----></g></g> <!----></g></g><defs v-gra="od"></defs></svg>